<?xml version="1.0" encoding="utf-8"?>
<!-- Generator: Adobe Illustrator 25.2.1, SVG Export Plug-In . SVG Version: 6.00 Build 0)  -->
<svg version="1.1" id="Layer_1" xmlns="http://www.w3.org/2000/svg" xmlns:xlink="http://www.w3.org/1999/xlink" x="0px" y="0px"
	 viewBox="0 0 3300 2200" style="enable-background:new 0 0 3300 2200;" xml:space="preserve">
<style type="text/css">
	.st0{fill:#FFFFFF;}
	.st1{fill:none;stroke:#000000;stroke-width:0.5;}
	.st2{font-family:'Arial-BoldMT';}
	.st3{font-size:12px;}
	.st4{font-family:'ArialMT';}
	.st5{fill:none;stroke:#00AEEF;stroke-width:0.5;}
	.st6{fill:#27AAE1;}
	.st7{fill:none;stroke:#27AAE1;stroke-width:0.5;}
</style>
<g id="Notes">
	<rect id="artboard" class="st0" width="3300" height="2200"/>
	<line class="st1" x1="263" y1="292" x2="3036" y2="292"/>
	<text transform="matrix(1 0 0 1 263 322)" class="st2 st3">Weight/Scale Variations</text>
	<text transform="matrix(1 0 0 1 536.0362 322)" class="st4 st3">Ultralight</text>
	<text transform="matrix(1 0 0 1 844.7501 322)" class="st4 st3">Thin</text>
	<text transform="matrix(1 0 0 1 1140.1193 322)" class="st4 st3">Light</text>
	<text transform="matrix(1 0 0 1 1428.8282 322)" class="st4 st3">Regular</text>
	<text transform="matrix(1 0 0 1 1725.2202 322)" class="st4 st3">Medium</text>
	<text transform="matrix(1 0 0 1 2018.2563 322)" class="st4 st3">Semibold</text>
	<text transform="matrix(1 0 0 1 2327.9712 322)" class="st4 st3">Bold</text>
	<text transform="matrix(1 0 0 1 2619.6831 322)" class="st4 st3">Heavy</text>
	<text transform="matrix(1 0 0 1 2918.728 322)" class="st4 st3">Black</text>
	<line class="st1" x1="263" y1="1903" x2="3036" y2="1903"/>
	<g transform="matrix(1 0 0 1 263 1933)">
		<path d="M9.2,0.8c4.3,0,7.9-3.6,7.9-7.9c0-4.3-3.6-7.9-7.9-7.9c-4.3,0-7.9,3.6-7.9,7.9C1.4-2.7,5,0.8,9.2,0.8z M9.2-0.7
			c-3.5,0-6.4-2.8-6.4-6.4c0-3.6,2.8-6.4,6.4-6.4c3.6,0,6.4,2.8,6.4,6.4C15.7-3.5,12.8-0.7,9.2-0.7z M6.4-6.3h2.1v2.1
			c0,0.4,0.3,0.7,0.7,0.7c0.4,0,0.7-0.3,0.7-0.7v-2.1h2.1c0.4,0,0.7-0.3,0.7-0.7c0-0.4-0.3-0.7-0.7-0.7H10v-2.1
			c0-0.4-0.3-0.8-0.7-0.8c-0.4,0-0.7,0.3-0.7,0.8v2.1H6.4C5.9-7.8,5.6-7.5,5.6-7C5.6-6.6,5.9-6.3,6.4-6.3z"/>
	</g>
	<g transform="matrix(1 0 0 1 281.506 1933)">
		<path d="M11.7,2.9c5.4,0,10-4.5,10-10c0-5.4-4.5-10-10-10c-5.4,0-10,4.5-10,10C1.7-1.6,6.3,2.9,11.7,2.9z M11.7,1.3
			c-4.6,0-8.3-3.7-8.3-8.3c0-4.6,3.7-8.3,8.3-8.3c4.6,0,8.3,3.7,8.3,8.3C20-2.4,16.3,1.3,11.7,1.3z M8-6.2h2.9v2.9
			c0,0.5,0.3,0.8,0.8,0.8c0.5,0,0.8-0.3,0.8-0.8v-2.9h2.9c0.5,0,0.8-0.3,0.8-0.8c0-0.5-0.3-0.8-0.8-0.8h-2.9v-2.9
			c0-0.5-0.3-0.8-0.8-0.8c-0.5,0-0.8,0.3-0.8,0.8v2.9H8C7.5-7.9,7.1-7.5,7.1-7C7.1-6.6,7.5-6.2,8-6.2z"/>
	</g>
	<g transform="matrix(1 0 0 1 304.924 1933)">
		<path d="M15,5.7c7,0,12.7-5.8,12.7-12.7c0-7-5.8-12.7-12.7-12.7C8-19.8,2.3-14,2.3-7.1C2.3-0.1,8,5.7,15,5.7z M15,3.8
			C8.9,3.8,4.1-1,4.1-7.1c0-6,4.8-10.9,10.9-10.9c6,0,10.9,4.9,10.9,10.9C25.9-1,21,3.8,15,3.8z M10.1-6.1h4v4
			c0,0.5,0.4,0.9,0.9,0.9c0.5,0,0.9-0.4,0.9-0.9v-4h4c0.5,0,0.9-0.4,0.9-0.9c0-0.5-0.4-0.9-0.9-0.9h-4v-4c0-0.6-0.4-0.9-0.9-0.9
			c-0.5,0-0.9,0.4-0.9,0.9v4h-4C9.5-7.9,9.1-7.6,9.1-7C9.1-6.5,9.5-6.1,10.1-6.1z"/>
	</g>
	<text transform="matrix(1 0 0 1 263 1953)" class="st2 st3">Design Variations</text>
	<text transform="matrix(1 0 0 1 263 1971)" class="st4 st3">Symbols are supported in up to nine weights and three scales.</text>
	<text transform="matrix(1 0 0 1 263 1989)" class="st4 st3">For optimal layout with text and other symbols, vertically align</text>
	<text transform="matrix(1 0 0 1 263 2007)" class="st4 st3">symbols with the adjacent text.</text>
	<line class="st5" x1="776" y1="1919" x2="776" y2="1933"/>
	<g transform="matrix(1 0 0 1 776 1933)">
		<path d="M3.3,0.1c0.5,0,0.8-0.2,1-0.7l1.3-3.5h5.8l1.3,3.5c0.2,0.5,0.4,0.7,0.9,0.7c0.5,0,0.8-0.3,0.8-0.8c0-0.2,0-0.3-0.1-0.5
			L9.7-13.4C9.4-14,9-14.3,8.4-14.3c-0.6,0-1,0.3-1.2,0.9L2.6-1.2C2.5-1,2.5-0.8,2.5-0.7C2.5-0.2,2.8,0.1,3.3,0.1z M6-5.5l2.4-6.6h0
			l2.4,6.6H6z"/>
	</g>
	<line class="st5" x1="792.8" y1="1919" x2="792.8" y2="1933"/>
	<text transform="matrix(1 0 0 1 776 1953)" class="st2 st3">Margins</text>
	<text transform="matrix(1 0 0 1 776 1971)" class="st4 st3">Leading and trailing margins on the left and right side of each symbol</text>
	<text transform="matrix(1 0 0 1 776 1989)" class="st4 st3">can be adjusted by modifying the x-location of the margin guidelines.</text>
	<text transform="matrix(1 0 0 1 776 2007)" class="st4 st3">Modifications are automatically applied proportionally to all</text>
	<text transform="matrix(1 0 0 1 776 2025)" class="st4 st3">scales and weights.</text>
	<g transform="matrix(1 0 0 1 1289 1933)">
		<path d="M2.8,1.9l1.7,1.7c0.9,0.9,1.8,0.8,2.8-0.2L17.5-7.9c0.3,0.1,0.5,0.1,0.8,0L19.4-8l0.7,0.7l0,0.6c0,0.5,0.1,0.9,0.6,1.4
			l0.8,0.7c0.5,0.5,1.1,0.5,1.6,0l2.9-2.9c0.5-0.5,0.4-1.1,0-1.5L25-9.9c-0.5-0.5-0.8-0.6-1.3-0.6l-0.6,0l-0.6-0.6l0.2-1.1
			c0.1-0.6,0-1-0.6-1.6L19.9-16c-3.3-3.3-7.8-3.2-10.7-0.4c-0.4,0.4-0.4,1-0.2,1.4c0.2,0.4,0.7,0.6,1.3,0.4c1.5-0.3,3-0.4,4.4,0.5
			l-0.6,1.5c-0.2,0.5-0.2,0.9-0.1,1.2L3-0.9C2.1,0,2,1,2.8,1.9z M10.8-16c2.4-1.8,5.7-1.5,7.9,0.8l2.4,2.4c0.2,0.2,0.3,0.4,0.2,0.8
			L21-10.5l1.5,1.5l1-0.1c0.3,0,0.3,0,0.5,0.2l0.6,0.6l-2.4,2.4l-0.6-0.6c-0.2-0.2-0.2-0.3-0.2-0.5l0.1-1L20-9.5l-1.5,0.3
			c-0.3,0.1-0.5,0-0.7-0.2l-2-2c-0.3-0.2-0.3-0.4-0.1-0.8l0.9-2.1c-1.6-1.5-3.6-2.1-5.6-1.5C10.7-15.7,10.6-15.8,10.8-16z M5.3,2.3
			L4.1,1.1C3.6,0.7,3.7,0.3,4.1,0L15-10.2l1.5,1.5l-10,11C6.1,2.7,5.7,2.8,5.3,2.3z"/>
	</g>
	<text transform="matrix(1 0 0 1 1289 1953)" class="st2 st3">Exporting</text>
	<text transform="matrix(1 0 0 1 1289 1971)" class="st4 st3">Symbols should be outlined when exporting to ensure the</text>
	<text transform="matrix(1 0 0 1 1289 1989)" class="st4 st3">design is preserved when submitting to Xcode.</text>
	<text id="template-version" transform="matrix(1 0 0 1 2958.8496 1933)" class="st4 st3">Template v.2.0</text>
	<text transform="matrix(1 0 0 1 2878.5762 1951)" class="st4 st3">Requires Xcode 12 or greater</text>
	<text transform="matrix(1 0 0 1 2885.2676 1969)" class="st4 st3">Generated from face.smiling</text>
	<text transform="matrix(1 0 0 1 2921.9238 1987)" class="st4 st3">Typeset at 100 points</text>
	<text transform="matrix(1 0 0 1 263 726)" class="st4 st3">Small</text>
	<text transform="matrix(1 0 0 1 263 1156)" class="st4 st3">Medium</text>
	<text transform="matrix(1 0 0 1 263 1586)" class="st4 st3">Large</text>
</g>
<g id="Guides">
	<g id="H-reference" transform="matrix(1 0 0 1 339 696)">
		<path class="st6" d="M1,0h2.7L13-24.5h32.8L55.1,0h2.6L30.6-70.5h-2.5L1,0z M29.3-67.1L29.3-67.1l15.5,40.4h-31L29.3-67.1z"/>
	</g>
	<line id="Baseline-S" class="st7" x1="263" y1="696" x2="3036" y2="696"/>
	<line id="Capline-S" class="st7" x1="263" y1="625.5" x2="3036" y2="625.5"/>
	<g id="H-reference_1_" transform="matrix(1 0 0 1 339 1126)">
		<path class="st6" d="M1,0h2.7L13-24.5h32.8L55.1,0h2.6L30.6-70.5h-2.5L1,0z M29.3-67.1L29.3-67.1l15.5,40.4h-31L29.3-67.1z"/>
	</g>
	<line id="Baseline-M" class="st7" x1="263" y1="1126" x2="3036" y2="1126"/>
	<line id="Capline-M" class="st7" x1="263" y1="1055.5" x2="3036" y2="1055.5"/>
	<g id="H-reference_2_" transform="matrix(1 0 0 1 339 1556)">
		<path class="st6" d="M1,0h2.7L13-24.5h32.8L55.1,0h2.6L30.6-70.5h-2.5L1,0z M29.3-67.1L29.3-67.1l15.5,40.4h-31L29.3-67.1z"/>
	</g>
	<line id="Baseline-L" class="st7" x1="263" y1="1556" x2="3036" y2="1556"/>
	<line id="Capline-L" class="st7" x1="263" y1="1485.5" x2="3036" y2="1485.5"/>
	<line id="left-margin" class="st5" x1="1391.3" y1="1030.8" x2="1391.3" y2="1150.1"/>
	<line id="right-margin" class="st5" x1="1508.4" y1="1030.8" x2="1508.4" y2="1150.1"/>
</g>
<g id="Symbols">
	<g id="Regular-L" transform="matrix(1 0 0 1 1374.97 1556)">
		<g transform="translate(0.000000,323.000000) scale(0.100000,-0.100000)">
			<path d="M665.4,4213.5c-262.8-36.1-473.6-229.1-539.5-494.2c-8.7-34.5-9.5-46-9.5-137c0-81.4,1.2-105.2,7.1-132.6
				c26.2-121.9,88.5-236.6,175.9-323.5c195.7-196.1,489.9-244.1,738-121.1c63.5,31.4,113.9,67.9,166.7,120.7
				c52.8,52.8,89.3,103.2,120.7,166.7c46.4,93.3,67.9,185,67.9,287c-0.4,289.8-195.3,542.3-476.4,618.1
				C838.5,4218.3,745.6,4224.3,665.4,4213.5z M865.5,4140.1c277.5-58.4,470.8-305.3,458.5-585.1c-4.8-107.2-34.1-200.1-90.1-286.2
				c-85.3-131-214.8-219.1-370.4-252.9c-57.6-12.3-165.5-12.3-223.9,0c-233.4,50-406.9,227.9-452.2,463.3c-9.9,50-9.5,149.7,0,200.5
				c15.1,77.4,45.7,152.4,88.1,216.7c27.8,41.3,90.5,108.4,130.2,138.1c78.2,58.8,178.2,100,276.3,113.5
				C723,4153.6,821.4,4149.6,865.5,4140.1z"/>
			<path d="M519.3,3891.6c-19.8-8.7-35.3-24.2-46-47.2c-19.5-40.9-9.5-101.2,20.6-129.8c13.9-12.7,36.9-23,52-23
				c28.2,0.4,66.3,31,77,61.9c6.7,19.8,6.7,62.7,0,82.6c-10.7,31.4-49.2,61.9-77.8,61.5C538.8,3897.5,526.8,3894.8,519.3,3891.6z"/>
			<path d="M923.8,3888.8c-19.8-10.3-40.9-38.5-47.6-63.5c-11.5-42.5,6.4-96.1,39.7-119.9c13.9-9.9,20.6-11.9,40.1-11.9
				c30.2,0,52.4,14.7,68.7,44.9c29.8,55.2,11.5,127-38.1,151.2C964.3,3900.3,945.7,3900.3,923.8,3888.8z"/>
			<path d="M360.5,3434.3c-30.2-9.5-25.4-38.5,18.3-104c44.5-67.5,98.8-117.1,164.3-150.5c225.5-115.5,495-29.8,607.8,192.9
				c18.7,36.5,18.7,48.8-0.4,58.8c-16.7,8.7-27.4,2.8-47.6-26.2c-169.5-244.5-526-247.7-697.5-6.7
				C382.7,3429.9,372.4,3438.2,360.5,3434.3z"/>
		</g>
	</g>
	<g id="Regular-M" transform="matrix(1 0 0 1 1391.3 1126)">
		<g transform="translate(0.000000,323.000000) scale(0.100000,-0.100000)">
			<path d="M515.5,4075.6c-201.6-27.7-363.4-175.7-413.9-379.2c-6.7-26.5-7.3-35.3-7.3-105.1c0-62.4,0.9-80.7,5.5-101.7
				c20.1-93.5,67.9-181.5,134.9-248.2c150.2-150.5,375.9-187.3,566.2-92.9c48.7,24.1,87.4,52.1,127.9,92.6
				c40.5,40.5,68.5,79.2,92.6,127.9c35.6,71.6,52.1,141.9,52.1,220.2c-0.3,222.4-149.9,416.1-365.5,474.2
				C648.3,4079.3,577,4083.8,515.5,4075.6z M669,4019.3c212.9-44.8,361.2-234.2,351.8-449c-3.7-82.2-26.2-153.5-69.1-219.6
				c-65.5-100.5-164.8-168.1-284.2-194c-44.2-9.4-127-9.4-171.8,0c-179.1,38.4-312.2,174.8-346.9,355.5c-7.6,38.4-7.3,114.8,0,153.8
				c11.6,59.4,35,117,67.6,166.3c21.3,31.7,69.4,83.2,99.9,106c60,45.1,136.8,76.8,212,87.1C559.6,4029.6,635.2,4026.6,669,4019.3z"
				/>
			<path d="M403.4,3828.6c-15.2-6.7-27.1-18.6-35.3-36.2c-14.9-31.4-7.3-77.7,15.8-99.6c10.7-9.7,28.3-17.7,39.9-17.7
				c21.6,0.3,50.9,23.8,59.1,47.5c5.2,15.2,5.2,48.1,0,63.4c-8.2,24.1-37.8,47.5-59.7,47.2C418.3,3833.2,409.2,3831,403.4,3828.6z"
				/>
			<path d="M713.8,3826.5c-15.2-7.9-31.4-29.5-36.6-48.7c-8.8-32.6,4.9-73.7,30.5-92c10.7-7.6,15.8-9.1,30.8-9.1
				c23.1,0,40.2,11.3,52.7,34.4c22.8,42.3,8.8,97.5-29.2,116C744.8,3835.3,730.5,3835.3,713.8,3826.5z"/>
			<path d="M281.5,3477.7c-23.1-7.3-19.5-29.5,14-79.8c34.1-51.8,75.8-89.9,126.1-115.4c173-88.6,379.8-22.8,466.3,148
				c14.3,28,14.3,37.5-0.3,45.1c-12.8,6.7-21,2.1-36.6-20.1c-130.1-187.6-403.6-190.1-535.2-5.2
				C298.6,3474.4,290.7,3480.7,281.5,3477.7z"/>
		</g>
	</g>
	<g id="Regular-S" transform="matrix(1 0 0 1 1403.58 696)">
		<g transform="translate(0.000000,323.000000) scale(0.100000,-0.100000)">
			<path d="M417,3979.1c-156.7-21.5-282.3-136.6-321.6-294.6c-5.2-20.6-5.7-27.5-5.7-81.6c0-48.5,0.7-62.7,4.3-79
				c15.6-72.7,52.8-141,104.8-192.9c116.7-116.9,292-145.5,440-72.2c37.9,18.7,67.9,40.5,99.4,71.9c31.5,31.5,53.2,61.5,71.9,99.4
				c27.7,55.6,40.5,110.3,40.5,171.1c-0.2,172.8-116.4,323.3-284,368.5C520.2,3982,464.8,3985.5,417,3979.1z M536.3,3935.3
				c165.4-34.8,280.7-182,273.3-348.8c-2.8-63.9-20.4-119.3-53.7-170.6c-50.9-78.1-128-130.6-220.8-150.8
				c-34.3-7.3-98.7-7.3-133.5,0c-139.2,29.8-242.6,135.8-269.6,276.2c-5.9,29.8-5.7,89.2,0,119.5c9,46.1,27.2,90.9,52.5,129.2
				c16.6,24.6,54,64.6,77.6,82.4c46.6,35,106.3,59.6,164.7,67.7C451.3,3943.4,510,3941,536.3,3935.3z"/>
			<path d="M329.9,3787.2c-11.8-5.2-21.1-14.4-27.5-28.2c-11.6-24.4-5.7-60.3,12.3-77.4c8.3-7.6,22-13.7,31-13.7
				c16.8,0.2,39.5,18.5,45.9,36.9c4,11.8,4,37.4,0,49.2c-6.4,18.7-29.3,36.9-46.4,36.7C341.5,3790.7,334.4,3789.1,329.9,3787.2z"/>
			<path d="M571.1,3785.5c-11.8-6.2-24.4-23-28.4-37.9c-6.9-25.3,3.8-57.3,23.7-71.5c8.3-5.9,12.3-7.1,23.9-7.1
				c18,0,31.2,8.8,40.9,26.7c17.7,32.9,6.9,75.7-22.7,90.2C595.2,3792.4,584.1,3792.4,571.1,3785.5z"/>
			<path d="M235.3,3514.6c-18-5.7-15.1-23,10.9-62c26.5-40.2,58.9-69.8,98-89.7c134.4-68.9,295.1-17.7,362.3,115
				c11.1,21.8,11.1,29.1-0.2,35c-9.9,5.2-16.3,1.7-28.4-15.6c-101.1-145.8-313.6-147.7-415.8-4
				C248.5,3512,242.4,3516.9,235.3,3514.6z"/>
		</g>
	</g>
</g>
</svg>
