<?xml version="1.0" encoding="utf-8"?>
<!-- Generator: Adobe Illustrator 25.2.1, SVG Export Plug-In . SVG Version: 6.00 Build 0)  -->
<svg version="1.1" id="Layer_1" xmlns="http://www.w3.org/2000/svg" xmlns:xlink="http://www.w3.org/1999/xlink" x="0px" y="0px"
	 viewBox="0 0 3300 2200" style="enable-background:new 0 0 3300 2200;" xml:space="preserve">
<style type="text/css">
	.st0{fill:#FFFFFF;}
	.st1{fill:none;stroke:#000000;stroke-width:0.5;}
	.st2{font-family:'Arial-BoldMT';}
	.st3{font-size:12px;}
	.st4{font-family:'ArialMT';}
	.st5{fill:none;stroke:#00AEEF;stroke-width:0.5;}
	.st6{fill:#27AAE1;}
	.st7{fill:none;stroke:#27AAE1;stroke-width:0.5;}
</style>
<g id="Notes">
	<rect id="artboard" class="st0" width="3300" height="2200"/>
	<line class="st1" x1="263" y1="292" x2="3036" y2="292"/>
	<text transform="matrix(1 0 0 1 263 322)" class="st2 st3">Weight/Scale Variations</text>
	<text transform="matrix(1 0 0 1 536.0362 322)" class="st4 st3">Ultralight</text>
	<text transform="matrix(1 0 0 1 844.7501 322)" class="st4 st3">Thin</text>
	<text transform="matrix(1 0 0 1 1140.1193 322)" class="st4 st3">Light</text>
	<text transform="matrix(1 0 0 1 1428.8282 322)" class="st4 st3">Regular</text>
	<text transform="matrix(1 0 0 1 1725.2202 322)" class="st4 st3">Medium</text>
	<text transform="matrix(1 0 0 1 2018.2563 322)" class="st4 st3">Semibold</text>
	<text transform="matrix(1 0 0 1 2327.9712 322)" class="st4 st3">Bold</text>
	<text transform="matrix(1 0 0 1 2619.6831 322)" class="st4 st3">Heavy</text>
	<text transform="matrix(1 0 0 1 2918.728 322)" class="st4 st3">Black</text>
	<line class="st1" x1="263" y1="1903" x2="3036" y2="1903"/>
	<g transform="matrix(1 0 0 1 263 1933)">
		<path d="M9.2,0.8c4.3,0,7.9-3.6,7.9-7.9c0-4.3-3.6-7.9-7.9-7.9c-4.3,0-7.9,3.6-7.9,7.9C1.4-2.7,5,0.8,9.2,0.8z M9.2-0.7
			c-3.5,0-6.4-2.8-6.4-6.4c0-3.6,2.8-6.4,6.4-6.4c3.6,0,6.4,2.8,6.4,6.4C15.7-3.5,12.8-0.7,9.2-0.7z M6.4-6.3h2.1v2.1
			c0,0.4,0.3,0.7,0.7,0.7c0.4,0,0.7-0.3,0.7-0.7v-2.1h2.1c0.4,0,0.7-0.3,0.7-0.7c0-0.4-0.3-0.7-0.7-0.7H10v-2.1
			c0-0.4-0.3-0.8-0.7-0.8c-0.4,0-0.7,0.3-0.7,0.8v2.1H6.4C5.9-7.8,5.6-7.5,5.6-7C5.6-6.6,5.9-6.3,6.4-6.3z"/>
	</g>
	<g transform="matrix(1 0 0 1 281.506 1933)">
		<path d="M11.7,2.9c5.4,0,10-4.5,10-10c0-5.4-4.5-10-10-10c-5.4,0-10,4.5-10,10C1.7-1.6,6.3,2.9,11.7,2.9z M11.7,1.3
			c-4.6,0-8.3-3.7-8.3-8.3c0-4.6,3.7-8.3,8.3-8.3c4.6,0,8.3,3.7,8.3,8.3C20-2.4,16.3,1.3,11.7,1.3z M8-6.2h2.9v2.9
			c0,0.5,0.3,0.8,0.8,0.8c0.5,0,0.8-0.3,0.8-0.8v-2.9h2.9c0.5,0,0.8-0.3,0.8-0.8c0-0.5-0.3-0.8-0.8-0.8h-2.9v-2.9
			c0-0.5-0.3-0.8-0.8-0.8c-0.5,0-0.8,0.3-0.8,0.8v2.9H8C7.5-7.9,7.1-7.5,7.1-7C7.1-6.6,7.5-6.2,8-6.2z"/>
	</g>
	<g transform="matrix(1 0 0 1 304.924 1933)">
		<path d="M15,5.7c7,0,12.7-5.8,12.7-12.7c0-7-5.8-12.7-12.7-12.7C8-19.8,2.3-14,2.3-7.1C2.3-0.1,8,5.7,15,5.7z M15,3.8
			C8.9,3.8,4.1-1,4.1-7.1c0-6,4.8-10.9,10.9-10.9c6,0,10.9,4.9,10.9,10.9C25.9-1,21,3.8,15,3.8z M10.1-6.1h4v4
			c0,0.5,0.4,0.9,0.9,0.9c0.5,0,0.9-0.4,0.9-0.9v-4h4c0.5,0,0.9-0.4,0.9-0.9c0-0.5-0.4-0.9-0.9-0.9h-4v-4c0-0.6-0.4-0.9-0.9-0.9
			c-0.5,0-0.9,0.4-0.9,0.9v4h-4C9.5-7.9,9.1-7.6,9.1-7C9.1-6.5,9.5-6.1,10.1-6.1z"/>
	</g>
	<text transform="matrix(1 0 0 1 263 1953)" class="st2 st3">Design Variations</text>
	<text transform="matrix(1 0 0 1 263 1971)" class="st4 st3">Symbols are supported in up to nine weights and three scales.</text>
	<text transform="matrix(1 0 0 1 263 1989)" class="st4 st3">For optimal layout with text and other symbols, vertically align</text>
	<text transform="matrix(1 0 0 1 263 2007)" class="st4 st3">symbols with the adjacent text.</text>
	<line class="st5" x1="776" y1="1919" x2="776" y2="1933"/>
	<g transform="matrix(1 0 0 1 776 1933)">
		<path d="M3.3,0.1c0.5,0,0.8-0.2,1-0.7l1.3-3.5h5.8l1.3,3.5c0.2,0.5,0.4,0.7,0.9,0.7c0.5,0,0.8-0.3,0.8-0.8c0-0.2,0-0.3-0.1-0.5
			L9.7-13.4C9.4-14,9-14.3,8.4-14.3c-0.6,0-1,0.3-1.2,0.9L2.6-1.2C2.5-1,2.5-0.8,2.5-0.7C2.5-0.2,2.8,0.1,3.3,0.1z M6-5.5l2.4-6.6h0
			l2.4,6.6H6z"/>
	</g>
	<line class="st5" x1="792.8" y1="1919" x2="792.8" y2="1933"/>
	<text transform="matrix(1 0 0 1 776 1953)" class="st2 st3">Margins</text>
	<text transform="matrix(1 0 0 1 776 1971)" class="st4 st3">Leading and trailing margins on the left and right side of each symbol</text>
	<text transform="matrix(1 0 0 1 776 1989)" class="st4 st3">can be adjusted by modifying the x-location of the margin guidelines.</text>
	<text transform="matrix(1 0 0 1 776 2007)" class="st4 st3">Modifications are automatically applied proportionally to all</text>
	<text transform="matrix(1 0 0 1 776 2025)" class="st4 st3">scales and weights.</text>
	<g transform="matrix(1 0 0 1 1289 1933)">
		<path d="M2.8,1.9l1.7,1.7c0.9,0.9,1.8,0.8,2.8-0.2L17.5-7.9c0.3,0.1,0.5,0.1,0.8,0L19.4-8l0.7,0.7l0,0.6c0,0.5,0.1,0.9,0.6,1.4
			l0.8,0.7c0.5,0.5,1.1,0.5,1.6,0l2.9-2.9c0.5-0.5,0.4-1.1,0-1.5L25-9.9c-0.5-0.5-0.8-0.6-1.3-0.6l-0.6,0l-0.6-0.6l0.2-1.1
			c0.1-0.6,0-1-0.6-1.6L19.9-16c-3.3-3.3-7.8-3.2-10.7-0.4c-0.4,0.4-0.4,1-0.2,1.4c0.2,0.4,0.7,0.6,1.3,0.4c1.5-0.3,3-0.4,4.4,0.5
			l-0.6,1.5c-0.2,0.5-0.2,0.9-0.1,1.2L3-0.9C2.1,0,2,1,2.8,1.9z M10.8-16c2.4-1.8,5.7-1.5,7.9,0.8l2.4,2.4c0.2,0.2,0.3,0.4,0.2,0.8
			L21-10.5l1.5,1.5l1-0.1c0.3,0,0.3,0,0.5,0.2l0.6,0.6l-2.4,2.4l-0.6-0.6c-0.2-0.2-0.2-0.3-0.2-0.5l0.1-1L20-9.5l-1.5,0.3
			c-0.3,0.1-0.5,0-0.7-0.2l-2-2c-0.3-0.2-0.3-0.4-0.1-0.8l0.9-2.1c-1.6-1.5-3.6-2.1-5.6-1.5C10.7-15.7,10.6-15.8,10.8-16z M5.3,2.3
			L4.1,1.1C3.6,0.7,3.7,0.3,4.1,0L15-10.2l1.5,1.5l-10,11C6.1,2.7,5.7,2.8,5.3,2.3z"/>
	</g>
	<text transform="matrix(1 0 0 1 1289 1953)" class="st2 st3">Exporting</text>
	<text transform="matrix(1 0 0 1 1289 1971)" class="st4 st3">Symbols should be outlined when exporting to ensure the</text>
	<text transform="matrix(1 0 0 1 1289 1989)" class="st4 st3">design is preserved when submitting to Xcode.</text>
	<text id="template-version" transform="matrix(1 0 0 1 2958.8496 1933)" class="st4 st3">Template v.2.0</text>
	<text transform="matrix(1 0 0 1 2878.5762 1951)" class="st4 st3">Requires Xcode 12 or greater</text>
	<text transform="matrix(1 0 0 1 2885.2676 1969)" class="st4 st3">Generated from face.smiling</text>
	<text transform="matrix(1 0 0 1 2921.9238 1987)" class="st4 st3">Typeset at 100 points</text>
	<text transform="matrix(1 0 0 1 263 726)" class="st4 st3">Small</text>
	<text transform="matrix(1 0 0 1 263 1156)" class="st4 st3">Medium</text>
	<text transform="matrix(1 0 0 1 263 1586)" class="st4 st3">Large</text>
</g>
<g id="Guides">
	<g id="H-reference" transform="matrix(1 0 0 1 339 696)">
		<path class="st6" d="M1,0h2.7L13-24.5h32.8L55.1,0h2.6L30.6-70.5h-2.5L1,0z M29.3-67.1L29.3-67.1l15.5,40.4h-31L29.3-67.1z"/>
	</g>
	<line id="Baseline-S" class="st7" x1="263" y1="696" x2="3036" y2="696"/>
	<line id="Capline-S" class="st7" x1="263" y1="625.5" x2="3036" y2="625.5"/>
	<g id="H-reference_1_" transform="matrix(1 0 0 1 339 1126)">
		<path class="st6" d="M1,0h2.7L13-24.5h32.8L55.1,0h2.6L30.6-70.5h-2.5L1,0z M29.3-67.1L29.3-67.1l15.5,40.4h-31L29.3-67.1z"/>
	</g>
	<line id="Baseline-M" class="st7" x1="263" y1="1126" x2="3036" y2="1126"/>
	<line id="Capline-M" class="st7" x1="263" y1="1055.5" x2="3036" y2="1055.5"/>
	<g id="H-reference_2_" transform="matrix(1 0 0 1 339 1556)">
		<path class="st6" d="M1,0h2.7L13-24.5h32.8L55.1,0h2.6L30.6-70.5h-2.5L1,0z M29.3-67.1L29.3-67.1l15.5,40.4h-31L29.3-67.1z"/>
	</g>
	<line id="Baseline-L" class="st7" x1="263" y1="1556" x2="3036" y2="1556"/>
	<line id="Capline-L" class="st7" x1="263" y1="1485.5" x2="3036" y2="1485.5"/>
	<line id="left-margin" class="st5" x1="1391.3" y1="1030.8" x2="1391.3" y2="1150.1"/>
	<line id="right-margin" class="st5" x1="1508.4" y1="1030.8" x2="1508.4" y2="1150.1"/>
</g>
<g id="Symbols">
	<g id="Regular-L" transform="matrix(1 0 0 1 1374.97 1556)">
		<g transform="translate(0.000000,323.000000) scale(0.100000,-0.100000)">
			<path d="M683.6,4217.3c-112.1-16-195-44.7-275.1-94.5c-104.5-65-184.6-153.5-238.9-264c-27.9-55.8-41.1-94.1-55-158.3
				c-12-55-12.8-181-2-236.5c27.9-139.6,84.5-247.2,180.2-342.9c91.7-91.7,198.2-149.1,325-175.9c137.2-28.7,291.1-8.8,416.3,54.6
				c346.5,175.5,462.2,602.1,250.8,928.7c-93.7,144.4-241.7,244.4-413.9,279.1C832.7,4215.7,713.9,4221.7,683.6,4217.3z M869,4138.3
				c231.7-53.4,401.6-230.5,445-463c10.4-54.6,10.4-148.7,0-203.4c-41.1-219.7-203.8-395.2-419.9-452.6
				c-197-52.6-407.1,4.4-553.1,149.9c-80.2,79.8-134,180.2-158.7,293.9c-11.6,54.2-12.4,162.3-2,216.1
				c49.8,249.2,244.8,433.1,497.3,468.6C723.1,4154.3,821.6,4149.5,869,4138.3z"/>
			<path d="M405.2,3789.8c-23.9-26.3,15.2-89.3,70.6-114.8c65-29.5,144-7.2,183.4,51.8c19.1,29.1,21.9,44.7,10.4,59.4
				c-7.6,9.6-11.2,11.2-25.1,10s-17.9-3.6-25.1-15.2c-25.9-40.7-47.9-55.8-81.3-55.8c-33.5,0-61.4,15.6-74.6,41.9
				c-11.2,21.5-21.5,29.9-37.1,29.9C417.2,3797,409.2,3794.2,405.2,3789.8z"/>
			<path d="M821.2,3789c-11.2-11.2-10-30.3,3.6-53.8c41.9-73,136.4-94.9,209-49c30.7,19.5,58.6,58.6,58.6,82.1
				c0,20.3-23.9,34.7-45.5,26.3c-3.6-1.2-12.4-12.4-19.9-25.1c-19.1-30.7-36.7-41.9-69.8-43.5c-34.7-2-56.6,9.2-75,37.5
				c-7.2,10.8-15.6,22.7-18.7,26.7C854.7,3799.8,831.1,3799,821.2,3789z"/>
			<path d="M396.1,3353.2c-14-12-14.8-31.5-2-43.9l8.8-8.8H747c333.4,0,344.9,0.4,352.9,7.6c11.6,10.4,11.6,35.1-0.4,46.3
				c-8.8,8-12,8-350.5,8H406.8L396.1,3353.2z"/>
		</g>
	</g>
	<g id="Regular-M" transform="matrix(1 0 0 1 1391.3 1126)">
		<g transform="translate(0.000000,323.000000) scale(0.100000,-0.100000)">
			<path d="M534.1,4078.5c-85.6-12.2-149-34.1-210.3-72.2c-79.8-49.7-141.1-117.3-182.5-201.7c-21.3-42.7-31.4-71.9-42.1-121
				c-9.1-42.1-9.8-138.3-1.5-180.7c21.3-106.6,64.6-188.9,137.7-262.1c70.1-70.1,151.4-114,248.3-134.4
				c104.8-21.9,222.4-6.7,318.1,41.7c264.8,134.1,353.2,460.1,191.7,709.7c-71.6,110.3-184.7,186.8-316.3,213.3
				C648,4077.3,557.2,4081.9,534.1,4078.5z M675.8,4018.2c177-40.8,306.8-176.1,340.1-353.8c7.9-41.7,7.9-113.7,0-155.4
				c-31.4-167.9-155.7-302-320.9-345.8c-150.5-40.2-311.1,3.4-422.6,114.6c-61.2,60.9-102.4,137.7-121.3,224.6
				c-8.8,41.4-9.4,124-1.5,165.2c38.1,190.4,187.1,330.9,380,358C564.2,4030.4,639.5,4026.7,675.8,4018.2z"/>
			<path d="M321.4,3751.8c-18.3-20.1,11.6-68.3,53.9-87.8c49.7-22.5,110-5.5,140.2,39.6c14.6,22.2,16.8,34.1,7.9,45.4
				c-5.8,7.3-8.5,8.5-19.2,7.6c-10.7-0.9-13.7-2.7-19.2-11.6c-19.8-31.1-36.6-42.7-62.2-42.7s-46.9,11.9-57,32
				c-8.5,16.5-16.5,22.9-28.3,22.9C330.5,3757.3,324.4,3755.2,321.4,3751.8z"/>
			<path d="M639.2,3751.2c-8.5-8.5-7.6-23.2,2.7-41.1c32-55.8,104.2-72.5,159.7-37.5c23.5,14.9,44.8,44.8,44.8,62.8
				c0,15.5-18.3,26.5-34.7,20.1c-2.7-0.9-9.4-9.4-15.2-19.2c-14.6-23.5-28-32-53.3-33.2c-26.5-1.5-43.3,7-57.3,28.6
				c-5.5,8.2-11.9,17.4-14.3,20.4C664.8,3759.5,646.8,3758.9,639.2,3751.2z"/>
			<path d="M314.4,3418.2c-10.7-9.1-11.3-24.1-1.5-33.5l6.7-6.7h263c254.7,0,263.6,0.3,269.7,5.8c8.8,7.9,8.8,26.8-0.3,35.3
				c-6.7,6.1-9.1,6.1-267.8,6.1H322.6L314.4,3418.2z"/>
		</g>
	</g>
	<g id="Regular-S" transform="matrix(1 0 0 1 1403.58 696)">
		<g transform="translate(0.000000,323.000000) scale(0.100000,-0.100000)">
			<path d="M427.7,3991.3c-68-9.7-118.4-27.1-167-57.4c-63.4-39.5-112.1-93.2-145-160.2c-16.9-33.9-24.9-57.1-33.4-96.1
				c-7.3-33.4-7.7-109.9-1.2-143.5c16.9-84.7,51.3-150.1,109.4-208.2c55.7-55.7,120.3-90.5,197.3-106.7
				c83.3-17.4,176.7-5.3,252.7,33.2c210.3,106.5,280.5,365.5,152.2,563.7c-56.9,87.6-146.7,148.4-251.2,169.4
				C518.3,3990.4,446.1,3994,427.7,3991.3z M540.3,3943.4c140.6-32.4,243.7-139.9,270.1-281c6.3-33.2,6.3-90.3,0-123.4
				c-24.9-133.4-123.7-239.9-254.9-274.7c-119.6-31.9-247.1,2.7-335.7,91c-48.7,48.4-81.3,109.4-96.3,178.4
				c-7,32.9-7.5,98.5-1.2,131.2c30.3,151.3,148.6,262.9,301.8,284.4C451.7,3953.1,511.5,3950.2,540.3,3943.4z"/>
			<path d="M258.8,3731.9c-14.5-16,9.2-54.2,42.8-69.7c39.5-17.9,87.4-4.4,111.3,31.5c11.6,17.7,13.3,27.1,6.3,36.1
				c-4.6,5.8-6.8,6.8-15.2,6.1s-10.9-2.2-15.2-9.2c-15.7-24.7-29-33.9-49.4-33.9c-20.3,0-37.3,9.4-45.3,25.4
				c-6.8,13.1-13.1,18.2-22.5,18.2C266.1,3736.2,261.2,3734.5,258.8,3731.9z"/>
			<path d="M511.3,3731.4c-6.8-6.8-6.1-18.4,2.2-32.7c25.4-44.3,82.8-57.6,126.8-29.8c18.6,11.9,35.6,35.6,35.6,49.9
				c0,12.3-14.5,21.1-27.6,16c-2.2-0.7-7.5-7.5-12.1-15.2c-11.6-18.6-22.3-25.4-42.4-26.4c-21.1-1.2-34.4,5.6-45.5,22.8
				c-4.4,6.5-9.4,13.8-11.4,16.2C531.6,3737.9,517.3,3737.4,511.3,3731.4z"/>
			<path d="M253.2,3466.8c-8.5-7.3-9-19.1-1.2-26.6l5.3-5.3h208.9c202.3,0,209.4,0.2,214.2,4.6c7,6.3,7,21.3-0.2,28.1
				c-5.3,4.8-7.3,4.8-212.8,4.8H259.8L253.2,3466.8z"/>
		</g>
	</g>
</g>
</svg>
