<?xml version="1.0" encoding="utf-8"?>
<!-- Generator: Adobe Illustrator 25.2.1, SVG Export Plug-In . SVG Version: 6.00 Build 0)  -->
<svg version="1.1" id="Layer_1" xmlns="http://www.w3.org/2000/svg" xmlns:xlink="http://www.w3.org/1999/xlink" x="0px" y="0px"
	 viewBox="0 0 3300 2200" style="enable-background:new 0 0 3300 2200;" xml:space="preserve">
<style type="text/css">
	.st0{fill:#FFFFFF;}
	.st1{fill:none;stroke:#000000;stroke-width:0.5;}
	.st2{font-family:'Arial-BoldMT';}
	.st3{font-size:12px;}
	.st4{font-family:'ArialMT';}
	.st5{fill:none;stroke:#00AEEF;stroke-width:0.5;}
	.st6{fill:#27AAE1;}
	.st7{fill:none;stroke:#27AAE1;stroke-width:0.5;}
</style>
<g id="Notes">
	<rect id="artboard" class="st0" width="3300" height="2200"/>
	<line class="st1" x1="263" y1="292" x2="3036" y2="292"/>
	<text transform="matrix(1 0 0 1 263 322)" class="st2 st3">Weight/Scale Variations</text>
	<text transform="matrix(1 0 0 1 536.0362 322)" class="st4 st3">Ultralight</text>
	<text transform="matrix(1 0 0 1 844.7501 322)" class="st4 st3">Thin</text>
	<text transform="matrix(1 0 0 1 1140.1193 322)" class="st4 st3">Light</text>
	<text transform="matrix(1 0 0 1 1428.8282 322)" class="st4 st3">Regular</text>
	<text transform="matrix(1 0 0 1 1725.2202 322)" class="st4 st3">Medium</text>
	<text transform="matrix(1 0 0 1 2018.2563 322)" class="st4 st3">Semibold</text>
	<text transform="matrix(1 0 0 1 2327.9712 322)" class="st4 st3">Bold</text>
	<text transform="matrix(1 0 0 1 2619.6831 322)" class="st4 st3">Heavy</text>
	<text transform="matrix(1 0 0 1 2918.728 322)" class="st4 st3">Black</text>
	<line class="st1" x1="263" y1="1903" x2="3036" y2="1903"/>
	<g transform="matrix(1 0 0 1 263 1933)">
		<path d="M9.2,0.8c4.3,0,7.9-3.6,7.9-7.9c0-4.3-3.6-7.9-7.9-7.9c-4.3,0-7.9,3.6-7.9,7.9C1.4-2.7,5,0.8,9.2,0.8z M9.2-0.7
			c-3.5,0-6.4-2.8-6.4-6.4c0-3.6,2.8-6.4,6.4-6.4c3.6,0,6.4,2.8,6.4,6.4C15.7-3.5,12.8-0.7,9.2-0.7z M6.4-6.3h2.1v2.1
			c0,0.4,0.3,0.7,0.7,0.7c0.4,0,0.7-0.3,0.7-0.7v-2.1h2.1c0.4,0,0.7-0.3,0.7-0.7c0-0.4-0.3-0.7-0.7-0.7H10v-2.1
			c0-0.4-0.3-0.8-0.7-0.8c-0.4,0-0.7,0.3-0.7,0.8v2.1H6.4C5.9-7.8,5.6-7.5,5.6-7C5.6-6.6,5.9-6.3,6.4-6.3z"/>
	</g>
	<g transform="matrix(1 0 0 1 281.506 1933)">
		<path d="M11.7,2.9c5.4,0,10-4.5,10-10c0-5.4-4.5-10-10-10c-5.4,0-10,4.5-10,10C1.7-1.6,6.3,2.9,11.7,2.9z M11.7,1.3
			c-4.6,0-8.3-3.7-8.3-8.3c0-4.6,3.7-8.3,8.3-8.3c4.6,0,8.3,3.7,8.3,8.3C20-2.4,16.3,1.3,11.7,1.3z M8-6.2h2.9v2.9
			c0,0.5,0.3,0.8,0.8,0.8c0.5,0,0.8-0.3,0.8-0.8v-2.9h2.9c0.5,0,0.8-0.3,0.8-0.8c0-0.5-0.3-0.8-0.8-0.8h-2.9v-2.9
			c0-0.5-0.3-0.8-0.8-0.8c-0.5,0-0.8,0.3-0.8,0.8v2.9H8C7.5-7.9,7.1-7.5,7.1-7C7.1-6.6,7.5-6.2,8-6.2z"/>
	</g>
	<g transform="matrix(1 0 0 1 304.924 1933)">
		<path d="M15,5.7c7,0,12.7-5.8,12.7-12.7c0-7-5.8-12.7-12.7-12.7C8-19.8,2.3-14,2.3-7.1C2.3-0.1,8,5.7,15,5.7z M15,3.8
			C8.9,3.8,4.1-1,4.1-7.1c0-6,4.8-10.9,10.9-10.9c6,0,10.9,4.9,10.9,10.9C25.9-1,21,3.8,15,3.8z M10.1-6.1h4v4
			c0,0.5,0.4,0.9,0.9,0.9c0.5,0,0.9-0.4,0.9-0.9v-4h4c0.5,0,0.9-0.4,0.9-0.9c0-0.5-0.4-0.9-0.9-0.9h-4v-4c0-0.6-0.4-0.9-0.9-0.9
			c-0.5,0-0.9,0.4-0.9,0.9v4h-4C9.5-7.9,9.1-7.6,9.1-7C9.1-6.5,9.5-6.1,10.1-6.1z"/>
	</g>
	<text transform="matrix(1 0 0 1 263 1953)" class="st2 st3">Design Variations</text>
	<text transform="matrix(1 0 0 1 263 1971)" class="st4 st3">Symbols are supported in up to nine weights and three scales.</text>
	<text transform="matrix(1 0 0 1 263 1989)" class="st4 st3">For optimal layout with text and other symbols, vertically align</text>
	<text transform="matrix(1 0 0 1 263 2007)" class="st4 st3">symbols with the adjacent text.</text>
	<line class="st5" x1="776" y1="1919" x2="776" y2="1933"/>
	<g transform="matrix(1 0 0 1 776 1933)">
		<path d="M3.3,0.1c0.5,0,0.8-0.2,1-0.7l1.3-3.5h5.8l1.3,3.5c0.2,0.5,0.4,0.7,0.9,0.7c0.5,0,0.8-0.3,0.8-0.8c0-0.2,0-0.3-0.1-0.5
			L9.7-13.4C9.4-14,9-14.3,8.4-14.3c-0.6,0-1,0.3-1.2,0.9L2.6-1.2C2.5-1,2.5-0.8,2.5-0.7C2.5-0.2,2.8,0.1,3.3,0.1z M6-5.5l2.4-6.6h0
			l2.4,6.6H6z"/>
	</g>
	<line class="st5" x1="792.8" y1="1919" x2="792.8" y2="1933"/>
	<text transform="matrix(1 0 0 1 776 1953)" class="st2 st3">Margins</text>
	<text transform="matrix(1 0 0 1 776 1971)" class="st4 st3">Leading and trailing margins on the left and right side of each symbol</text>
	<text transform="matrix(1 0 0 1 776 1989)" class="st4 st3">can be adjusted by modifying the x-location of the margin guidelines.</text>
	<text transform="matrix(1 0 0 1 776 2007)" class="st4 st3">Modifications are automatically applied proportionally to all</text>
	<text transform="matrix(1 0 0 1 776 2025)" class="st4 st3">scales and weights.</text>
	<g transform="matrix(1 0 0 1 1289 1933)">
		<path d="M2.8,1.9l1.7,1.7c0.9,0.9,1.8,0.8,2.8-0.2L17.5-7.9c0.3,0.1,0.5,0.1,0.8,0L19.4-8l0.7,0.7l0,0.6c0,0.5,0.1,0.9,0.6,1.4
			l0.8,0.7c0.5,0.5,1.1,0.5,1.6,0l2.9-2.9c0.5-0.5,0.4-1.1,0-1.5L25-9.9c-0.5-0.5-0.8-0.6-1.3-0.6l-0.6,0l-0.6-0.6l0.2-1.1
			c0.1-0.6,0-1-0.6-1.6L19.9-16c-3.3-3.3-7.8-3.2-10.7-0.4c-0.4,0.4-0.4,1-0.2,1.4c0.2,0.4,0.7,0.6,1.3,0.4c1.5-0.3,3-0.4,4.4,0.5
			l-0.6,1.5c-0.2,0.5-0.2,0.9-0.1,1.2L3-0.9C2.1,0,2,1,2.8,1.9z M10.8-16c2.4-1.8,5.7-1.5,7.9,0.8l2.4,2.4c0.2,0.2,0.3,0.4,0.2,0.8
			L21-10.5l1.5,1.5l1-0.1c0.3,0,0.3,0,0.5,0.2l0.6,0.6l-2.4,2.4l-0.6-0.6c-0.2-0.2-0.2-0.3-0.2-0.5l0.1-1L20-9.5l-1.5,0.3
			c-0.3,0.1-0.5,0-0.7-0.2l-2-2c-0.3-0.2-0.3-0.4-0.1-0.8l0.9-2.1c-1.6-1.5-3.6-2.1-5.6-1.5C10.7-15.7,10.6-15.8,10.8-16z M5.3,2.3
			L4.1,1.1C3.6,0.7,3.7,0.3,4.1,0L15-10.2l1.5,1.5l-10,11C6.1,2.7,5.7,2.8,5.3,2.3z"/>
	</g>
	<text transform="matrix(1 0 0 1 1289 1953)" class="st2 st3">Exporting</text>
	<text transform="matrix(1 0 0 1 1289 1971)" class="st4 st3">Symbols should be outlined when exporting to ensure the</text>
	<text transform="matrix(1 0 0 1 1289 1989)" class="st4 st3">design is preserved when submitting to Xcode.</text>
	<text id="template-version" transform="matrix(1 0 0 1 2958.8496 1933)" class="st4 st3">Template v.2.0</text>
	<text transform="matrix(1 0 0 1 2878.5762 1951)" class="st4 st3">Requires Xcode 12 or greater</text>
	<text transform="matrix(1 0 0 1 2885.2676 1969)" class="st4 st3">Generated from face.smiling</text>
	<text transform="matrix(1 0 0 1 2921.9238 1987)" class="st4 st3">Typeset at 100 points</text>
	<text transform="matrix(1 0 0 1 263 726)" class="st4 st3">Small</text>
	<text transform="matrix(1 0 0 1 263 1156)" class="st4 st3">Medium</text>
	<text transform="matrix(1 0 0 1 263 1586)" class="st4 st3">Large</text>
</g>
<g id="Guides">
	<g id="H-reference" transform="matrix(1 0 0 1 339 696)">
		<path class="st6" d="M1,0h2.7L13-24.5h32.8L55.1,0h2.6L30.6-70.5h-2.5L1,0z M29.3-67.1L29.3-67.1l15.5,40.4h-31L29.3-67.1z"/>
	</g>
	<line id="Baseline-S" class="st7" x1="263" y1="696" x2="3036" y2="696"/>
	<line id="Capline-S" class="st7" x1="263" y1="625.5" x2="3036" y2="625.5"/>
	<g id="H-reference_1_" transform="matrix(1 0 0 1 339 1126)">
		<path class="st6" d="M1,0h2.7L13-24.5h32.8L55.1,0h2.6L30.6-70.5h-2.5L1,0z M29.3-67.1L29.3-67.1l15.5,40.4h-31L29.3-67.1z"/>
	</g>
	<line id="Baseline-M" class="st7" x1="263" y1="1126" x2="3036" y2="1126"/>
	<line id="Capline-M" class="st7" x1="263" y1="1055.5" x2="3036" y2="1055.5"/>
	<g id="H-reference_2_" transform="matrix(1 0 0 1 339 1556)">
		<path class="st6" d="M1,0h2.7L13-24.5h32.8L55.1,0h2.6L30.6-70.5h-2.5L1,0z M29.3-67.1L29.3-67.1l15.5,40.4h-31L29.3-67.1z"/>
	</g>
	<line id="Baseline-L" class="st7" x1="263" y1="1556" x2="3036" y2="1556"/>
	<line id="Capline-L" class="st7" x1="263" y1="1485.5" x2="3036" y2="1485.5"/>
	<line id="left-margin" class="st5" x1="1391.3" y1="1030.8" x2="1391.3" y2="1150.1"/>
	<line id="right-margin" class="st5" x1="1508.4" y1="1030.8" x2="1508.4" y2="1150.1"/>
</g>
<g id="Symbols">
	<g id="Regular-L" transform="matrix(1 0 0 1 1374.97 1556)">
		<g transform="translate(0.000000,323.000000) scale(0.100000,-0.100000)">
			<path d="M667,4215.7c-139.4-18.7-272.9-85-372.2-184.3c-173.6-173.6-232.4-422.7-154.9-656.3c108.1-325.4,456.5-507.7,787.4-412
				c106.1,30.6,197.4,85.4,277.3,166.1c112.4,113.6,177.2,261.8,183.5,419.5c13.1,320.6-204.2,597.5-517.6,659.5
				C820.3,4218.1,714.3,4222.1,667,4215.7z M861.2,4140.6c229.2-48.1,399.7-219.3,449.3-450.1c12.7-59.2,12.3-170-0.4-229.2
				c-49.3-228.8-230.8-405.2-461.2-447.7c-51.6-9.5-155.3-9.1-204.6,0.4c-267,52.4-454.9,268.2-469.6,538.7
				c-15.9,296.8,201.4,553.8,503.3,595.9C719,4154.1,817.5,4150.1,861.2,4140.6z"/>
			<path d="M421.1,3975.7c-10.3-7.2-14.3-22.2-9.5-35c2.4-5.6,18.7-21.1,36.9-35c43.3-32.6,41.3-30.2,33.8-38.1
				c-23.8-26.6-30.2-85.8-13.1-122.4c22.2-48.1,72.3-65.9,110.4-40.1c52.8,35.4,60.8,119.6,15.9,166.5c-6,6.4-40.5,33.4-76.7,60.8
				C449.7,3984.1,439.3,3988.5,421.1,3975.7z"/>
			<path d="M1037.6,3976.9c-21.8-12.7-133.9-100.1-144.2-112.4c-14.7-18.3-20.7-38.1-20.7-69.5c0-32.6,6.4-52,23-71.5
				c50.9-59.6,129.1-26.2,141.8,60.4c3.2,22.2-5.2,54.4-19.9,76.3c-5.6,8.3-9.9,15.5-9.1,15.9c31,22.2,67.9,52,72.3,58.8
				C1100,3961.8,1067,3993.6,1037.6,3976.9z"/>
			<path d="M686,3437.4c-106.1-28.6-210.6-123.2-210.6-190.3c0-32.2,6-34.6,59.2-21.8c90.6,21.5,136.7,27,218.9,27
				c81.8,0,125.5-5.6,216.5-27.4c35.4-8.3,40.5-8.7,48.9-3.6c6.8,4.4,8.7,9.5,8.7,23c0,64-89,151-189.5,186.3
				C791.3,3447,731.3,3449.8,686,3437.4z"/>
		</g>
	</g>
	<g id="Regular-M" transform="matrix(1 0 0 1 1391.3 1126)">
		<g transform="translate(0.000000,323.000000) scale(0.100000,-0.100000)">
			<path d="M523,4077.2c-108.3-14.5-212-66-289.1-143.2C99,3799.2,53.3,3605.7,113.5,3424.3c83.9-252.7,354.6-394.4,611.6-320
				c82.4,23.8,153.4,66.3,215.4,129c87.3,88.3,137.6,203.4,142.6,325.9c10.2,249-158.6,464.1-402.1,512.3
				C642.1,4079.1,559.7,4082.2,523,4077.2z M673.9,4018.9c178.1-37.3,310.4-170.3,349-349.6c9.9-46,9.6-132.1-0.3-178.1
				c-38.3-177.7-179.3-314.8-358.3-347.8c-40.1-7.4-120.7-7.1-158.9,0.3C298,3184.5,152,3352.1,140.6,3562.2
				c-12.3,230.5,156.5,430.2,391,462.9C563.4,4029.4,639.9,4026.3,673.9,4018.9z"/>
			<path d="M331.9,3890.9c-8-5.6-11.1-17.3-7.4-27.2c1.9-4.3,14.5-16.4,28.7-27.2c33.6-25.3,32.1-23.5,26.2-29.6
				c-18.5-20.7-23.5-66.7-10.2-95c17.3-37.3,56.2-51.2,85.8-31.2c41,27.5,47.2,92.9,12.3,129.3c-4.6,4.9-31.5,25.9-59.6,47.2
				C354.2,3897.3,346.1,3900.7,331.9,3890.9z"/>
			<path d="M810.9,3891.8c-17-9.9-104-77.8-112-87.3c-11.4-14.2-16-29.6-16-54c0-25.3,4.9-40.4,17.9-55.5
				c39.5-46.3,100.3-20.4,110.2,46.9c2.5,17.3-4,42.3-15.4,59.2c-4.3,6.5-7.7,12-7.1,12.3c24.1,17.3,52.8,40.4,56.2,45.7
				C859.3,3880.1,833.7,3904.7,810.9,3891.8z"/>
			<path d="M537.8,3472.7c-82.4-22.2-163.6-95.7-163.6-147.8c0-25,4.6-26.8,46-17c70.4,16.7,106.2,21,170,21
				c63.6,0,97.5-4.3,168.2-21.3c27.5-6.5,31.5-6.8,38-2.8c5.2,3.4,6.8,7.4,6.8,17.9c0,49.7-69.1,117.3-147.2,144.7
				C619.5,3480.1,572.9,3482.3,537.8,3472.7z"/>
		</g>
	</g>
	<g id="Regular-S" transform="matrix(1 0 0 1 1403.58 696)">
		<g transform="translate(0.000000,323.000000) scale(0.100000,-0.100000)">
			<path d="M418.3,3990.5c-87.5-11.7-171.3-53.3-233.6-115.7C75.8,3765.9,38.9,3609.6,87.5,3463c67.8-204.2,286.4-318.6,494.1-258.5
				c66.6,19.2,123.9,53.6,174,104.2c70.5,71.3,111.2,164.3,115.2,263.3c8.2,201.2-128.1,374.9-324.8,413.8
				C514.5,3992,447.9,3994.5,418.3,3990.5z M540.2,3943.4c143.8-30.2,250.8-137.6,281.9-282.4c8-37.1,7.7-106.7-0.2-143.8
				C791,3373.5,677,3262.8,532.5,3236.1c-32.4-6-97.5-5.7-128.4,0.2c-167.5,32.9-285.4,168.3-294.7,338
				c-10,186.2,126.4,347.5,315.9,373.9C450.9,3951.8,512.8,3949.3,540.2,3943.4z"/>
			<path d="M264,3839.9c-6.5-4.5-9-14-6-21.9c1.5-3.5,11.7-13.2,23.2-21.9c27.2-20.4,25.9-18.9,21.2-23.9
				c-15-16.7-18.9-53.8-8.2-76.8c14-30.2,45.4-41.4,69.3-25.2c33.2,22.2,38.1,75,10,104.5c-3.7,4-25.4,20.9-48.1,38.1
				C281.9,3845.1,275.4,3847.9,264,3839.9z"/>
			<path d="M650.9,3840.7c-13.7-8-84-62.8-90.5-70.5c-9.2-11.5-13-23.9-13-43.6c0-20.4,4-32.7,14.5-44.9c31.9-37.4,81-16.5,89,37.9
				c2,14-3.2,34.2-12.5,47.9c-3.5,5.2-6.2,9.7-5.7,10c19.4,14,42.6,32.7,45.4,36.9C690,3831.2,669.3,3851.1,650.9,3840.7z"/>
			<path d="M430.2,3502.1c-66.6-17.9-132.1-77.3-132.1-119.4c0-20.2,3.7-21.7,37.1-13.7c56.8,13.5,85.8,17,137.4,17
				c51.4,0,78.8-3.5,135.9-17.2c22.2-5.2,25.4-5.5,30.7-2.2c4.2,2.7,5.5,6,5.5,14.5c0,40.1-55.8,94.7-118.9,116.9
				C496.3,3508.1,458.7,3509.9,430.2,3502.1z"/>
		</g>
	</g>
</g>
</svg>
