<?xml version="1.0" encoding="utf-8"?>
<!-- Generator: Adobe Illustrator 25.2.1, SVG Export Plug-In . SVG Version: 6.00 Build 0)  -->
<svg version="1.1" id="Layer_1" xmlns="http://www.w3.org/2000/svg" xmlns:xlink="http://www.w3.org/1999/xlink" x="0px" y="0px"
	 viewBox="0 0 3300 2200" style="enable-background:new 0 0 3300 2200;" xml:space="preserve">
<style type="text/css">
	.st0{fill:#FFFFFF;}
	.st1{fill:none;stroke:#000000;stroke-width:0.5;}
	.st2{font-family:'Arial-BoldMT';}
	.st3{font-size:12px;}
	.st4{font-family:'ArialMT';}
	.st5{fill:none;stroke:#00AEEF;stroke-width:0.5;}
	.st6{fill:#27AAE1;}
	.st7{fill:none;stroke:#27AAE1;stroke-width:0.5;}
</style>
<g id="Notes">
	<rect id="artboard" class="st0" width="3300" height="2200"/>
	<line class="st1" x1="263" y1="292" x2="3036" y2="292"/>
	<text transform="matrix(1 0 0 1 263 322)" class="st2 st3">Weight/Scale Variations</text>
	<text transform="matrix(1 0 0 1 536.0362 322)" class="st4 st3">Ultralight</text>
	<text transform="matrix(1 0 0 1 844.7501 322)" class="st4 st3">Thin</text>
	<text transform="matrix(1 0 0 1 1140.1193 322)" class="st4 st3">Light</text>
	<text transform="matrix(1 0 0 1 1428.8282 322)" class="st4 st3">Regular</text>
	<text transform="matrix(1 0 0 1 1725.2202 322)" class="st4 st3">Medium</text>
	<text transform="matrix(1 0 0 1 2018.2563 322)" class="st4 st3">Semibold</text>
	<text transform="matrix(1 0 0 1 2327.9712 322)" class="st4 st3">Bold</text>
	<text transform="matrix(1 0 0 1 2619.6831 322)" class="st4 st3">Heavy</text>
	<text transform="matrix(1 0 0 1 2918.728 322)" class="st4 st3">Black</text>
	<line class="st1" x1="263" y1="1903" x2="3036" y2="1903"/>
	<g transform="matrix(1 0 0 1 263 1933)">
		<path d="M9.2,0.8c4.3,0,7.9-3.6,7.9-7.9c0-4.3-3.6-7.9-7.9-7.9c-4.3,0-7.9,3.6-7.9,7.9C1.4-2.7,5,0.8,9.2,0.8z M9.2-0.7
			c-3.5,0-6.4-2.8-6.4-6.4c0-3.6,2.8-6.4,6.4-6.4c3.6,0,6.4,2.8,6.4,6.4C15.7-3.5,12.8-0.7,9.2-0.7z M6.4-6.3h2.1v2.1
			c0,0.4,0.3,0.7,0.7,0.7c0.4,0,0.7-0.3,0.7-0.7v-2.1h2.1c0.4,0,0.7-0.3,0.7-0.7c0-0.4-0.3-0.7-0.7-0.7H10v-2.1
			c0-0.4-0.3-0.8-0.7-0.8c-0.4,0-0.7,0.3-0.7,0.8v2.1H6.4C5.9-7.8,5.6-7.5,5.6-7C5.6-6.6,5.9-6.3,6.4-6.3z"/>
	</g>
	<g transform="matrix(1 0 0 1 281.506 1933)">
		<path d="M11.7,2.9c5.4,0,10-4.5,10-10c0-5.4-4.5-10-10-10c-5.4,0-10,4.5-10,10C1.7-1.6,6.3,2.9,11.7,2.9z M11.7,1.3
			c-4.6,0-8.3-3.7-8.3-8.3c0-4.6,3.7-8.3,8.3-8.3c4.6,0,8.3,3.7,8.3,8.3C20-2.4,16.3,1.3,11.7,1.3z M8-6.2h2.9v2.9
			c0,0.5,0.3,0.8,0.8,0.8c0.5,0,0.8-0.3,0.8-0.8v-2.9h2.9c0.5,0,0.8-0.3,0.8-0.8c0-0.5-0.3-0.8-0.8-0.8h-2.9v-2.9
			c0-0.5-0.3-0.8-0.8-0.8c-0.5,0-0.8,0.3-0.8,0.8v2.9H8C7.5-7.9,7.1-7.5,7.1-7C7.1-6.6,7.5-6.2,8-6.2z"/>
	</g>
	<g transform="matrix(1 0 0 1 304.924 1933)">
		<path d="M15,5.7c7,0,12.7-5.8,12.7-12.7c0-7-5.8-12.7-12.7-12.7C8-19.8,2.3-14,2.3-7.1C2.3-0.1,8,5.7,15,5.7z M15,3.8
			C8.9,3.8,4.1-1,4.1-7.1c0-6,4.8-10.9,10.9-10.9c6,0,10.9,4.9,10.9,10.9C25.9-1,21,3.8,15,3.8z M10.1-6.1h4v4
			c0,0.5,0.4,0.9,0.9,0.9c0.5,0,0.9-0.4,0.9-0.9v-4h4c0.5,0,0.9-0.4,0.9-0.9c0-0.5-0.4-0.9-0.9-0.9h-4v-4c0-0.6-0.4-0.9-0.9-0.9
			c-0.5,0-0.9,0.4-0.9,0.9v4h-4C9.5-7.9,9.1-7.6,9.1-7C9.1-6.5,9.5-6.1,10.1-6.1z"/>
	</g>
	<text transform="matrix(1 0 0 1 263 1953)" class="st2 st3">Design Variations</text>
	<text transform="matrix(1 0 0 1 263 1971)" class="st4 st3">Symbols are supported in up to nine weights and three scales.</text>
	<text transform="matrix(1 0 0 1 263 1989)" class="st4 st3">For optimal layout with text and other symbols, vertically align</text>
	<text transform="matrix(1 0 0 1 263 2007)" class="st4 st3">symbols with the adjacent text.</text>
	<line class="st5" x1="776" y1="1919" x2="776" y2="1933"/>
	<g transform="matrix(1 0 0 1 776 1933)">
		<path d="M3.3,0.1c0.5,0,0.8-0.2,1-0.7l1.3-3.5h5.8l1.3,3.5c0.2,0.5,0.4,0.7,0.9,0.7c0.5,0,0.8-0.3,0.8-0.8c0-0.2,0-0.3-0.1-0.5
			L9.7-13.4C9.4-14,9-14.3,8.4-14.3c-0.6,0-1,0.3-1.2,0.9L2.6-1.2C2.5-1,2.5-0.8,2.5-0.7C2.5-0.2,2.8,0.1,3.3,0.1z M6-5.5l2.4-6.6h0
			l2.4,6.6H6z"/>
	</g>
	<line class="st5" x1="792.8" y1="1919" x2="792.8" y2="1933"/>
	<text transform="matrix(1 0 0 1 776 1953)" class="st2 st3">Margins</text>
	<text transform="matrix(1 0 0 1 776 1971)" class="st4 st3">Leading and trailing margins on the left and right side of each symbol</text>
	<text transform="matrix(1 0 0 1 776 1989)" class="st4 st3">can be adjusted by modifying the x-location of the margin guidelines.</text>
	<text transform="matrix(1 0 0 1 776 2007)" class="st4 st3">Modifications are automatically applied proportionally to all</text>
	<text transform="matrix(1 0 0 1 776 2025)" class="st4 st3">scales and weights.</text>
	<g transform="matrix(1 0 0 1 1289 1933)">
		<path d="M2.8,1.9l1.7,1.7c0.9,0.9,1.8,0.8,2.8-0.2L17.5-7.9c0.3,0.1,0.5,0.1,0.8,0L19.4-8l0.7,0.7l0,0.6c0,0.5,0.1,0.9,0.6,1.4
			l0.8,0.7c0.5,0.5,1.1,0.5,1.6,0l2.9-2.9c0.5-0.5,0.4-1.1,0-1.5L25-9.9c-0.5-0.5-0.8-0.6-1.3-0.6l-0.6,0l-0.6-0.6l0.2-1.1
			c0.1-0.6,0-1-0.6-1.6L19.9-16c-3.3-3.3-7.8-3.2-10.7-0.4c-0.4,0.4-0.4,1-0.2,1.4c0.2,0.4,0.7,0.6,1.3,0.4c1.5-0.3,3-0.4,4.4,0.5
			l-0.6,1.5c-0.2,0.5-0.2,0.9-0.1,1.2L3-0.9C2.1,0,2,1,2.8,1.9z M10.8-16c2.4-1.8,5.7-1.5,7.9,0.8l2.4,2.4c0.2,0.2,0.3,0.4,0.2,0.8
			L21-10.5l1.5,1.5l1-0.1c0.3,0,0.3,0,0.5,0.2l0.6,0.6l-2.4,2.4l-0.6-0.6c-0.2-0.2-0.2-0.3-0.2-0.5l0.1-1L20-9.5l-1.5,0.3
			c-0.3,0.1-0.5,0-0.7-0.2l-2-2c-0.3-0.2-0.3-0.4-0.1-0.8l0.9-2.1c-1.6-1.5-3.6-2.1-5.6-1.5C10.7-15.7,10.6-15.8,10.8-16z M5.3,2.3
			L4.1,1.1C3.6,0.7,3.7,0.3,4.1,0L15-10.2l1.5,1.5l-10,11C6.1,2.7,5.7,2.8,5.3,2.3z"/>
	</g>
	<text transform="matrix(1 0 0 1 1289 1953)" class="st2 st3">Exporting</text>
	<text transform="matrix(1 0 0 1 1289 1971)" class="st4 st3">Symbols should be outlined when exporting to ensure the</text>
	<text transform="matrix(1 0 0 1 1289 1989)" class="st4 st3">design is preserved when submitting to Xcode.</text>
	<text id="template-version" transform="matrix(1 0 0 1 2958.8496 1933)" class="st4 st3">Template v.2.0</text>
	<text transform="matrix(1 0 0 1 2878.5762 1951)" class="st4 st3">Requires Xcode 12 or greater</text>
	<text transform="matrix(1 0 0 1 2885.2676 1969)" class="st4 st3">Generated from face.smiling</text>
	<text transform="matrix(1 0 0 1 2921.9238 1987)" class="st4 st3">Typeset at 100 points</text>
	<text transform="matrix(1 0 0 1 263 726)" class="st4 st3">Small</text>
	<text transform="matrix(1 0 0 1 263 1156)" class="st4 st3">Medium</text>
	<text transform="matrix(1 0 0 1 263 1586)" class="st4 st3">Large</text>
</g>
<g id="Guides">
	<g id="H-reference" transform="matrix(1 0 0 1 339 696)">
		<path class="st6" d="M1,0h2.7L13-24.5h32.8L55.1,0h2.6L30.6-70.5h-2.5L1,0z M29.3-67.1L29.3-67.1l15.5,40.4h-31L29.3-67.1z"/>
	</g>
	<line id="Baseline-S" class="st7" x1="263" y1="696" x2="3036" y2="696"/>
	<line id="Capline-S" class="st7" x1="263" y1="625.5" x2="3036" y2="625.5"/>
	<g id="H-reference_1_" transform="matrix(1 0 0 1 339 1126)">
		<path class="st6" d="M1,0h2.7L13-24.5h32.8L55.1,0h2.6L30.6-70.5h-2.5L1,0z M29.3-67.1L29.3-67.1l15.5,40.4h-31L29.3-67.1z"/>
	</g>
	<line id="Baseline-M" class="st7" x1="263" y1="1126" x2="3036" y2="1126"/>
	<line id="Capline-M" class="st7" x1="263" y1="1055.5" x2="3036" y2="1055.5"/>
	<g id="H-reference_2_" transform="matrix(1 0 0 1 339 1556)">
		<path class="st6" d="M1,0h2.7L13-24.5h32.8L55.1,0h2.6L30.6-70.5h-2.5L1,0z M29.3-67.1L29.3-67.1l15.5,40.4h-31L29.3-67.1z"/>
	</g>
	<line id="Baseline-L" class="st7" x1="263" y1="1556" x2="3036" y2="1556"/>
	<line id="Capline-L" class="st7" x1="263" y1="1485.5" x2="3036" y2="1485.5"/>
	<line id="left-margin" class="st5" x1="1391.3" y1="1030.8" x2="1391.3" y2="1150.1"/>
	<line id="right-margin" class="st5" x1="1508.4" y1="1030.8" x2="1508.4" y2="1150.1"/>
</g>
<g id="Symbols">
	<g id="Regular-L" transform="matrix(1 0 0 1 1374.97 1556)">
		<g transform="translate(0.000000,323.000000) scale(0.100000,-0.100000)">
			<path d="M679.1,4215c-268.4-31.1-487.3-222.5-553.1-483.7c-45.5-181-9.2-376,98.9-528.7c33.9-48.2,103.7-117.6,152.3-152.3
				c69.8-49.4,163.5-89.7,250.4-107.3c57-11.6,150.7-14,208.9-6c262,36.7,472.9,226.1,537.5,482.1
				c86.5,343.3-122.4,692.6-467.3,780.7C837.8,4217.4,748.9,4223.4,679.1,4215z M862.5,4140.1c228.5-46.7,402.7-220.9,452.6-452.2
				c11.6-54.6,12.4-162.3,1.6-216.1c-57.4-287.1-303.4-483.7-590.5-471.3c-84.9,3.6-155.5,21.9-230.1,58.6
				c-163.9,81.3-273.1,224.9-312.6,410.7c-11.2,51.4-10,163.5,1.6,218.1c53,246,250.4,428.7,497.6,459.8
				C726.5,4153.2,816.7,4149.2,862.5,4140.1z"/>
			<path d="M538.7,3980.2c-15.6-6.8-191.4-153.9-196.6-164.7c-4.4-8.8-4.4-12.8,0-21.5c6.8-14,22.7-23.1,35.5-19.9
				c12.8,3.2,195.4,151.9,202.2,164.3c6.4,12.8,2.4,27.9-10,37.9C558.7,3984.6,551.5,3985.8,538.7,3980.2z"/>
			<path d="M925.5,3974.2c-11.2-10.8-12.8-24.3-4-36.7c4.8-7.2,114.4-94.9,186.6-149.9c22.3-17.1,33.9-18.3,49-5.6
				c13.2,11.6,14.8,30.7,3.2,43.1c-9.6,10.8-183.8,148.3-195.8,154.3C950.6,3987,935.9,3985,925.5,3974.2z"/>
			<path d="M506.8,3811.5c-63.8-35.9-62.6-153.1,2-186.2c57-29.1,116.8,19.1,116.8,93.7c0,30.3-6.8,50.6-23.5,72.6
				C580.2,3820.3,537.9,3829,506.8,3811.5z"/>
			<path d="M927.5,3816.3c-14.4-6-35.1-27.1-45.1-45.5c-12.4-23.1-12.4-80.5,0-104.1c33.9-63.8,103.7-66.2,142-4.8
				c27.9,45.1,13.6,115.6-29.9,147.9C981.7,3819.5,943.5,3823.1,927.5,3816.3z"/>
			<path d="M690.3,3413.6c-72.6-8.8-137.2-29.9-189.4-62.6c-31.5-19.5-77.8-62.6-87.7-82.1c-5.2-10.4-5.2-11.6,2-16.7
				c14.8-10.8,27.5-6.8,56.2,18.7c143.5,126.8,421.9,126.4,558.6-1.2c26.7-24.7,42.3-29.5,54.6-16.7c6,5.6,6,7.2-0.4,18.3
				c-4,6.4-21.9,25.9-39.9,43.1c-34.7,32.7-79.4,59-128.8,75.8C852.5,3411.2,755.2,3421.5,690.3,3413.6z"/>
		</g>
	</g>
	<g id="Regular-M" transform="matrix(1 0 0 1 1391.3 1126)">
		<g transform="translate(0.000000,323.000000) scale(0.100000,-0.100000)">
			<path d="M529.5,4076.8c-205.1-23.8-372.3-170-422.6-369.6c-34.7-138.3-7-287.3,75.6-404c25.9-36.9,79.2-89.9,116.4-116.4
				c53.3-37.8,124.9-68.6,191.4-82c43.6-8.8,115.2-10.7,159.7-4.6c200.2,28,361.4,172.8,410.7,368.4
				c66.1,262.3-93.5,529.3-357.1,596.6C650.8,4078.6,582.8,4083.2,529.5,4076.8z M669.7,4019.5c174.6-35.6,307.7-168.8,345.8-345.5
				c8.8-41.7,9.4-124,1.2-165.1c-43.9-219.4-231.9-369.6-451.3-360.2c-64.9,2.7-118.8,16.8-175.8,44.8
				c-125.2,62.2-208.7,171.8-238.9,313.8c-8.5,39.3-7.6,124.9,1.2,166.7c40.5,188,191.4,327.5,380.3,351.3
				C565.8,4029.5,634.6,4026.5,669.7,4019.5z"/>
			<path d="M422.3,3897.3c-11.9-5.2-146.3-117.6-150.2-125.8c-3.4-6.7-3.4-9.8,0-16.5c5.2-10.7,17.4-17.7,27.1-15.2
				c9.8,2.4,149.3,116.1,154.5,125.5c4.9,9.8,1.8,21.3-7.6,28.9C437.5,3900.7,432,3901.6,422.3,3897.3z"/>
			<path d="M717.8,3892.7c-8.5-8.2-9.8-18.6-3-28c3.7-5.5,87.4-72.5,142.6-114.6c17.1-13.1,25.9-14,37.5-4.3
				c10.1,8.8,11.3,23.5,2.4,32.9c-7.3,8.2-140.5,113.3-149.6,117.9C737,3902.5,725.7,3901,717.8,3892.7z"/>
			<path d="M397.9,3768.4c-48.8-27.4-47.8-117,1.5-142.3c43.6-22.2,89.3,14.6,89.3,71.6c0,23.2-5.2,38.7-18,55.5
				C453.9,3775.1,421.6,3781.8,397.9,3768.4z"/>
			<path d="M719.3,3772.1c-11-4.6-26.8-20.7-34.4-34.7c-9.4-17.7-9.4-61.5,0-79.5c25.9-48.8,79.2-50.6,108.5-3.7
				c21.3,34.4,10.4,88.4-22.9,113C760.8,3774.5,731.5,3777.3,719.3,3772.1z"/>
			<path d="M538,3464.3c-55.5-6.7-104.8-22.9-144.7-47.8c-24.1-14.9-59.4-47.8-67-62.8c-4-7.9-4-8.8,1.5-12.8
				c11.3-8.2,21-5.2,43,14.3c109.7,96.9,322.4,96.6,426.9-0.9c20.4-18.9,32.3-22.5,41.7-12.8c4.6,4.3,4.6,5.5-0.3,14
				c-3,4.9-16.8,19.8-30.5,32.9c-26.5,25-60.6,45.1-98.4,57.9C662,3462.5,587.7,3470.4,538,3464.3z"/>
		</g>
	</g>
	<g id="Regular-S" transform="matrix(1 0 0 1 1403.58 696)">
		<g transform="translate(0.000000,323.000000) scale(0.100000,-0.100000)">
			<path d="M420.9,3990c-161.6-18.7-293.5-134-333.1-291.3c-27.4-109-5.5-226.5,59.6-318.4c20.4-29.1,62.4-70.8,91.7-91.7
				c42-29.8,98.5-54,150.8-64.6c34.3-7,90.8-8.4,125.8-3.6c157.8,22.1,284.8,136.2,323.7,290.3c52.1,206.8-73.7,417.1-281.5,470.2
				C516.5,3991.4,462.9,3995,420.9,3990z M531.4,3944.8c137.6-28.1,242.6-133,272.6-272.3c7-32.9,7.4-97.7,1-130.2
				c-34.6-172.9-182.8-291.3-355.7-283.9c-51.2,2.2-93.7,13.2-138.6,35.3c-98.7,49-164.5,135.4-188.3,247.4c-6.7,31-6,98.5,1,131.4
				c31.9,148.2,150.8,258.2,299.7,276.9C449.5,3952.8,503.8,3950.4,531.4,3944.8z"/>
			<path d="M336.4,3848.5c-9.4-4.1-115.3-92.7-118.4-99.2c-2.6-5.3-2.6-7.7,0-13c4.1-8.4,13.7-13.9,21.4-12
				c7.7,1.9,117.7,91.5,121.8,98.9c3.8,7.7,1.4,16.8-6,22.8C348.4,3851.2,344,3851.9,336.4,3848.5z"/>
			<path d="M569.3,3844.9c-6.7-6.5-7.7-14.6-2.4-22.1c2.9-4.3,68.9-57.2,112.4-90.3c13.4-10.3,20.4-11,29.5-3.4
				c7.9,7,8.9,18.5,1.9,25.9c-5.8,6.5-110.7,89.3-117.9,92.9C584.4,3852.6,575.6,3851.4,569.3,3844.9z"/>
			<path d="M317.2,3747c-38.4-21.6-37.7-92.2,1.2-112.2c34.3-17.5,70.4,11.5,70.4,56.4c0,18.3-4.1,30.5-14.2,43.7
				C361.3,3752.2,335.9,3757.5,317.2,3747z"/>
			<path d="M570.5,3749.8c-8.6-3.6-21.1-16.3-27.1-27.4c-7.4-13.9-7.4-48.5,0-62.7c20.4-38.4,62.4-39.9,85.5-2.9
				c16.8,27.1,8.2,69.6-18,89.1C603.2,3751.8,580.1,3753.9,570.5,3749.8z"/>
			<path d="M427.6,3507.3c-43.7-5.3-82.6-18-114.1-37.7c-19-11.8-46.8-37.7-52.8-49.5c-3.1-6.2-3.1-7,1.2-10.1
				c8.9-6.5,16.6-4.1,33.9,11.3c86.5,76.4,254.1,76.1,336.5-0.7c16.1-14.9,25.5-17.8,32.9-10.1c3.6,3.4,3.6,4.3-0.2,11
				c-2.4,3.8-13.2,15.6-24,25.9c-20.9,19.7-47.8,35.5-77.6,45.6C525.4,3505.9,466.8,3512.1,427.6,3507.3z"/>
		</g>
	</g>
</g>
</svg>
